<?xml version="1.0" encoding="UTF-8" standalone="no"?>
<svg width="26px" height="26px" viewBox="0 0 26 26" version="1.1" xmlns="http://www.w3.org/2000/svg" xmlns:xlink="http://www.w3.org/1999/xlink" xmlns:sketch="http://www.bohemiancoding.com/sketch/ns">
    <!-- Generator: Sketch 3.3.3 (12081) - http://www.bohemiancoding.com/sketch -->
    <title>Breakroom</title>
    <desc>Created with Sketch.</desc>
    <defs></defs>
    <g id="Page-2" stroke="none" stroke-width="1" fill="none" fill-rule="evenodd" sketch:type="MSPage">
        <g id="Breakroom" sketch:type="MSLayerGroup" transform="translate(1.000000, 1.000000)">
            <path d="M12,24 C18.627417,24 24,18.627417 24,12 C24,5.372583 18.627417,0 12,0 C5.372583,0 0,5.372583 0,12 C0,18.627417 5.372583,24 12,24 Z" id="Oval-1-Copy-4" stroke="#E9E9E9" fill="#F9F9F9" sketch:type="MSShapeGroup"></path>
            <path d="M0,0 L24,0 L24,24 L0,24 L0,0 Z" id="Shape" sketch:type="MSShapeGroup"></path>
            <path d="M17.6,5.7 L6.4,5.7 L6.4,12.7 C6.4,14.247 7.653,15.5 9.2,15.5 L13.4,15.5 C14.947,15.5 16.2,14.247 16.2,12.7 L16.2,10.6 L17.6,10.6 C18.377,10.6 19,9.977 19,9.2 L19,7.1 C19,6.323 18.377,5.7 17.6,5.7 L17.6,5.7 Z M17.6,9.2 L16.2,9.2 L16.2,7.1 L17.6,7.1 L17.6,9.2 L17.6,9.2 Z M5,18.3 L17.6,18.3 L17.6,16.9 L5,16.9 L5,18.3 L5,18.3 Z" id="Shape" fill="#DD941C" sketch:type="MSShapeGroup"></path>
        </g>
    </g>
</svg>