<?xml version="1.0" encoding="UTF-8" standalone="no"?>
<svg width="26px" height="26px" viewBox="0 0 26 26" version="1.1" xmlns="http://www.w3.org/2000/svg" xmlns:xlink="http://www.w3.org/1999/xlink" xmlns:sketch="http://www.bohemiancoding.com/sketch/ns">
    <!-- Generator: Sketch 3.3.3 (12081) - http://www.bohemiancoding.com/sketch -->
    <title>ConferenceRoom</title>
    <desc>Created with Sketch.</desc>
    <defs></defs>
    <g id="Page-2" stroke="none" stroke-width="1" fill="none" fill-rule="evenodd" sketch:type="MSPage">
        <g id="ConferenceRoom" sketch:type="MSLayerGroup" transform="translate(1.000000, 1.000000)">
            <path d="M12,24 C18.627417,24 24,18.627417 24,12 C24,5.372583 18.627417,0 12,0 C5.372583,0 0,5.372583 0,12 C0,18.627417 5.372583,24 12,24 Z" id="Oval-1-Copy-5" stroke="#E9E9E9" fill="#F9F9F9" sketch:type="MSShapeGroup"></path>
            <path d="M0,0 L24,0 L24,24 L0,24 L0,0 Z" id="Shape" sketch:type="MSShapeGroup"></path>
            <path d="M14.9090909,10.6636242 C16.1163636,10.6636242 17.0836364,9.6890787 17.0836364,8.48180597 C17.0836364,7.27453325 16.1163636,6.29998779 14.9090909,6.29998779 C13.7018182,6.29998779 12.7272727,7.27453325 12.7272727,8.48180597 C12.7272727,9.6890787 13.7018182,10.6636242 14.9090909,10.6636242 L14.9090909,10.6636242 Z M9.09090909,10.6636242 C10.2981818,10.6636242 11.2654545,9.6890787 11.2654545,8.48180597 C11.2654545,7.27453325 10.2981818,6.29998779 9.09090909,6.29998779 C7.88363636,6.29998779 6.90909091,7.27453325 6.90909091,8.48180597 C6.90909091,9.6890787 7.88363636,10.6636242 9.09090909,10.6636242 L9.09090909,10.6636242 Z M9.09090909,12.1181696 C7.39636364,12.1181696 4,12.9690787 4,14.6636242 L4,16.481806 L14.1818182,16.481806 L14.1818182,14.6636242 C14.1818182,12.9690787 10.7854545,12.1181696 9.09090909,12.1181696 L9.09090909,12.1181696 Z M14.9090909,12.1181696 C14.6981818,12.1181696 14.4581818,12.1327151 14.2036364,12.1545332 C15.0472727,12.7654423 15.6363636,13.5872605 15.6363636,14.6636242 L15.6363636,16.481806 L20,16.481806 L20,14.6636242 C20,12.9690787 16.6036364,12.1181696 14.9090909,12.1181696 L14.9090909,12.1181696 Z" id="Shape" fill="#3C5D87" sketch:type="MSShapeGroup"></path>
        </g>
    </g>
</svg>