<?xml version="1.0" encoding="UTF-8" standalone="no"?>
<svg width="26px" height="26px" viewBox="0 0 26 26" version="1.1" xmlns="http://www.w3.org/2000/svg" xmlns:xlink="http://www.w3.org/1999/xlink" xmlns:sketch="http://www.bohemiancoding.com/sketch/ns">
    <!-- Generator: Sketch 3.3.3 (12081) - http://www.bohemiancoding.com/sketch -->
    <title>CopyRoom</title>
    <desc>Created with Sketch.</desc>
    <defs></defs>
    <g id="Page-2" stroke="none" stroke-width="1" fill="none" fill-rule="evenodd" sketch:type="MSPage">
        <g id="CopyRoom" sketch:type="MSLayerGroup" transform="translate(1.000000, 1.000000)">
            <path d="M12,24 C18.627417,24 24,18.627417 24,12 C24,5.372583 18.627417,0 12,0 C5.372583,0 0,5.372583 0,12 C0,18.627417 5.372583,24 12,24 Z" id="Oval-1-Copy-3" stroke="#E9E9E9" fill="#F9F9F9" sketch:type="MSShapeGroup"></path>
            <path d="M16.9,9.2 L7.1,9.2 C5.938,9.2 5,10.138 5,11.3 L5,15.5 L7.8,15.5 L7.8,18.3 L16.2,18.3 L16.2,15.5 L19,15.5 L19,11.3 C19,10.138 18.062,9.2 16.9,9.2 L16.9,9.2 Z M14.8,16.9 L9.2,16.9 L9.2,13.4 L14.8,13.4 L14.8,16.9 L14.8,16.9 Z M16.9,12 C16.515,12 16.2,11.685 16.2,11.3 C16.2,10.915 16.515,10.6 16.9,10.6 C17.285,10.6 17.6,10.915 17.6,11.3 C17.6,11.685 17.285,12 16.9,12 L16.9,12 Z M16.2,5.7 L7.8,5.7 L7.8,8.5 L16.2,8.5 L16.2,5.7 L16.2,5.7 Z" id="Shape" fill="#417505" sketch:type="MSShapeGroup"></path>
            <path d="M0,0 L24,0 L24,24 L0,24 L0,0 Z" id="Shape" sketch:type="MSShapeGroup"></path>
        </g>
    </g>
</svg>