<?xml version="1.0" encoding="UTF-8" standalone="no"?>
<svg width="26px" height="26px" viewBox="0 0 26 26" version="1.1" xmlns="http://www.w3.org/2000/svg" xmlns:xlink="http://www.w3.org/1999/xlink" xmlns:sketch="http://www.bohemiancoding.com/sketch/ns">
    <!-- Generator: Sketch 3.3.3 (12081) - http://www.bohemiancoding.com/sketch -->
    <title>RestroomMale</title>
    <desc>Created with Sketch.</desc>
    <defs></defs>
    <g id="Page-2" stroke="none" stroke-width="1" fill="none" fill-rule="evenodd" sketch:type="MSPage">
        <g id="RestroomMale" sketch:type="MSLayerGroup" transform="translate(1.000000, 1.000000)">
            <circle id="Oval-1-Copy" stroke="#E9E9E9" fill="#F9F9F9" sketch:type="MSShapeGroup" cx="12" cy="12" r="12"></circle>
            <path d="M0,0 L24,0 L24,24 L0,24 L0,0 L0,0 Z" id="Shape" sketch:type="MSShapeGroup"></path>
            <path d="M10.4,20 L10.4,14 L9.2,14 L9.2,9.6 C9.2,8.72 9.92,8 10.8,8 L13.2,8 C14.08,8 14.8,8.72 14.8,9.6 L14.8,14 L13.6,14 L13.6,20 L10.4,20 L10.4,20 Z M12,7.2 C12.888,7.2 13.6,6.488 13.6,5.6 C13.6,4.712 12.888,4 12,4 C11.112,4 10.4,4.712 10.4,5.6 C10.4,6.488 11.112,7.2 12,7.2 L12,7.2 Z" id="Shape" fill="#135BB0" sketch:type="MSShapeGroup"></path>
        </g>
    </g>
</svg>