<?xml version="1.0" encoding="UTF-8" standalone="no"?>
<svg width="26px" height="26px" viewBox="0 0 26 26" version="1.1" xmlns="http://www.w3.org/2000/svg" xmlns:xlink="http://www.w3.org/1999/xlink" xmlns:sketch="http://www.bohemiancoding.com/sketch/ns">
    <!-- Generator: Sketch 3.3.3 (12081) - http://www.bohemiancoding.com/sketch -->
    <title>RestroomMaleFemale</title>
    <desc>Created with Sketch.</desc>
    <defs></defs>
    <g id="Page-2" stroke="none" stroke-width="1" fill="none" fill-rule="evenodd" sketch:type="MSPage">
        <g id="RestroomMaleFemale" sketch:type="MSLayerGroup" transform="translate(1.000000, 1.000000)">
            <circle id="Oval-1" stroke="#E9E9E9" fill="#F9F9F9" sketch:type="MSShapeGroup" cx="12" cy="12" r="12"></circle>
            <path d="M0,0 L24,0 L24,24 L0,24 L0,0 L0,0 Z" id="Shape" sketch:type="MSShapeGroup"></path>
            <path d="M7.125,19 L7.125,13.375 L6,13.375 L6,9.25 C6,8.425 6.675,7.75 7.5,7.75 L9.75,7.75 C10.575,7.75 11.25,8.425 11.25,9.25 L11.25,13.375 L10.125,13.375 L10.125,19 L7.125,19 L7.125,19 Z M16.5,19 L16.5,14.5 L18.75,14.5 L16.845,8.7775 C16.635,8.1625 16.065,7.75 15.42,7.75 L15.33,7.75 C14.685,7.75 14.1075,8.1625 13.905,8.7775 L12,14.5 L14.25,14.5 L14.25,19 L16.5,19 L16.5,19 Z M8.625,7 C9.4575,7 10.125,6.3325 10.125,5.5 C10.125,4.6675 9.4575,4 8.625,4 C7.7925,4 7.125,4.6675 7.125,5.5 C7.125,6.3325 7.7925,7 8.625,7 L8.625,7 Z M15.375,7 C16.2075,7 16.875,6.3325 16.875,5.5 C16.875,4.6675 16.2075,4 15.375,4 C14.5425,4 13.875,4.6675 13.875,5.5 C13.875,6.3325 14.5425,7 15.375,7 L15.375,7 Z" id="Shape" fill="#405074" sketch:type="MSShapeGroup"></path>
        </g>
    </g>
</svg>