<?xml version="1.0" encoding="UTF-8" standalone="no"?>
<svg width="26px" height="26px" viewBox="0 0 26 26" version="1.1" xmlns="http://www.w3.org/2000/svg" xmlns:xlink="http://www.w3.org/1999/xlink" xmlns:sketch="http://www.bohemiancoding.com/sketch/ns">
    <!-- Generator: Sketch 3.3.3 (12081) - http://www.bohemiancoding.com/sketch -->
    <title>RestroomFemale</title>
    <desc>Created with Sketch.</desc>
    <defs></defs>
    <g id="Page-2" stroke="none" stroke-width="1" fill="none" fill-rule="evenodd" sketch:type="MSPage">
        <g id="RestroomFemale" sketch:type="MSLayerGroup" transform="translate(1.000000, 1.000000)">
            <path d="M12,24 C18.627417,24 24,18.627417 24,12 C24,5.372583 18.627417,0 12,0 C5.372583,0 0,5.372583 0,12 C0,18.627417 5.372583,24 12,24 Z" id="Oval-1-Copy-2" stroke="#E9E9E9" fill="#F9F9F9" sketch:type="MSShapeGroup"></path>
            <path d="M0,0 L24,0 L24,24 L0,24 L0,0 L0,0 Z" id="Shape" sketch:type="MSShapeGroup"></path>
            <path d="M13.2,20 L13.2,15.2 L15.6,15.2 L13.568,9.096 C13.344,8.44 12.736,8 12.048,8 L11.952,8 C11.264,8 10.648,8.44 10.432,9.096 L8.4,15.2 L10.8,15.2 L10.8,20 L13.2,20 L13.2,20 Z M12,7.2 C12.888,7.2 13.6,6.488 13.6,5.6 C13.6,4.712 12.888,4 12,4 C11.112,4 10.4,4.712 10.4,5.6 C10.4,6.488 11.112,7.2 12,7.2 L12,7.2 Z" id="Shape" fill="#F12437" sketch:type="MSShapeGroup"></path>
        </g>
    </g>
</svg>