<?xml version="1.0" encoding="utf-8"?>
<!-- Generator: Adobe Illustrator 20.1.0, SVG Export Plug-In . SVG Version: 6.00 Build 0)  -->
<svg version="1.1" id="Layer_1" xmlns="http://www.w3.org/2000/svg" xmlns:xlink="http://www.w3.org/1999/xlink" x="0px" y="0px"
	 viewBox="0 0 1060.2 889.2" style="enable-background:new 0 0 1060.2 889.2;" xml:space="preserve">
<style type="text/css">
	.st0{fill:#EA5800;}
	.st1{fill:#000083;}
</style>
<g>
	<path class="st0" d="M459,757.9c-33-2.1-64.9-9.3-95.9-21.7c-14.5-5.8-33.4-15.1-34.1-16.9c-0.6-1.5,0.1-2.4,8.6-12
		c62.3-69.7,114-124.4,147.2-155.7c10-9.4,19-17.9,19.9-18.9c12.4-12.2,60.3-52.5,72.4-60.8c3.7-2.5,10.5-7.2,15.1-10.5
		c12-8.4,29.3-18.4,37.9-21.9c12.6-5.1,25.6-5.8,42.4-2.1c23.1,5.1,53,20.5,98.3,50.8l15.6,10.4l-0.5,4.8c-0.8,7.2-5.2,25-9.6,38.5
		c-14.4,44.1-36.7,82.4-68,116.3c-17.3,18.8-34.6,33.7-55.4,47.6C595.3,744.4,528.3,762.3,459,757.9L459,757.9z M305.3,707.2
		c-30.4-20.3-60.6-49.7-81.7-79.6C207,604,192.9,576.5,183.7,550c-7.1-20.5-13.8-48.4-12-50.1c2.1-2.1,28,5.9,48.2,14.8
		c16.3,7.2,23.4,10.9,40,20.9c20.8,12.5,37.9,24.2,53.4,36.6c17.8,14.2,26.6,22.9,29.6,29.4c2.2,4.8,2.3,5.5,2.3,18.6
		c0,15.3-1.3,22.1-8.5,43.7c-6.3,19-18.6,49.6-20,49.8C316,713.8,310.9,710.9,305.3,707.2L305.3,707.2z M439.9,513.3
		c-23.1-5-49.9-17.3-101.4-46.9c-9.3-5.4-18.3-10.6-19.9-11.6c-20.2-12.7-61.6-34.9-76.8-41.3c-24.7-10.3-38.7-13.4-61.6-13.5
		c-8.7-0.1-11.2-0.4-11.5-1.3c-1.1-2.9,6.3-34.3,12.5-52.8c17-51,48.4-98.3,88.8-133.9c52.4-46.2,112.9-72,183.6-78.1
		c13.1-1.2,51.3-0.6,60.7,0.9c3.3,0.5,8.4,1.3,11.5,1.8c38,6.1,72.5,18.3,105.6,37.2c43.6,24.8,80.2,59.4,108.4,102.6
		c4.2,6.4,16.8,28.3,16.8,29.1c0,0.2,2.1,4.7,4.6,10c2.5,5.3,5.5,11.9,6.7,14.8c2.7,6.5,10.3,29.7,12.1,36.8
		c1.9,7.5,3.9,20.3,3.3,21.3c-0.7,1.1-2,0.5-17.8-8.8c-23.4-13.8-31.8-18.1-40-20.9c-28.8-9.6-59-2.5-96.9,23
		c-17,11.4-23,15.8-31.8,23c-9.4,7.7-27.9,26.6-43,43.9c-43.7,50.2-68,66.3-99.1,66.1C449.5,514.5,442.9,513.9,439.9,513.3
		L439.9,513.3z M153.7,393.7c-0.3-0.3-0.3-1.8-0.1-3.3c0.4-2.3,0.1-3-1.5-4.1c-3.3-2.2-73.4-21.1-76.9-20.8
		c-2.8,0.2-3.3,0.7-5.1,4.3c-1.1,2.3-2.5,4-3.3,4c-1.5,0-1.3-2.4,1.5-12.3c10.4-37.8,10.8-39,13.2-43.8c4-8,9.8-12.8,16.8-14.1
		c11.1-2.1,18.9,5.3,20.6,19.2c0.3,2.5,0.9,4.5,1.5,4.5c0.5,0,3.4-2.7,6.3-5.9c7-7.8,12.1-10.5,19.8-10.5
		c16.6-0.1,26.5,15.5,22.8,35.6c-1.1,5.8-9.1,36.1-11.5,43.8C156.5,393.8,155.1,395.1,153.7,393.7L153.7,393.7z M159.8,360.3
		c3.5-3.5,3.3-12.9-0.4-18.7c-5.9-9.3-19.9-12.8-30.3-7.6c-4.6,2.4-9.6,7.8-11.4,12.3c-1.3,3.4-1.3,3.9-0.2,5.1
		c0.7,0.7,6.9,2.8,13.9,4.7C155.9,362.7,157.2,362.9,159.8,360.3L159.8,360.3z M111.9,348.1c0.7-1.1,2.2-4.6,3.3-7.9
		c1.8-5.2,1.9-6.2,0.9-8.5c-2.3-5.5-10.1-9.1-18.5-8.6c-8.7,0.5-16.2,7.1-17.3,15.1c-0.4,3-0.2,3.5,1.8,4.4
		c2.6,1.2,24.9,7.3,27.1,7.5C109.9,350.1,111.2,349.2,111.9,348.1L111.9,348.1z"/>
	<path class="st1" d="M445.9,888.4c-68.2-5.8-132.3-26-190.1-59.9c-62.5-36.7-113.8-86.6-154.4-150.2c-23.8-37.3-43-82.6-54.7-129.6
		c-3.8-15.1-3.8-15.9-0.3-18.1c3.5-2.1,4.3-1.3,5.7,6.2c1.6,8.5,9,34.9,13.1,46.9C84,638.5,110.9,685.1,150,730.3
		c15,17.3,41.3,42.1,61.3,57.7c35.7,27.9,73.8,49,118.4,65.8c14.3,5.4,37.5,12.5,51.8,15.8c12.6,2.9,15.8,3.6,25,5.1
		c28.1,4.7,51.7,6.4,79.3,5.8c47-1.1,82.9-7,126.5-20.7c83.9-26.4,161.3-81.1,215.1-152c30.9-40.7,54.9-87.8,70-137.8
		c3.7-12.2,4.3-13.6,6.1-13.8c1.1-0.2,3.2,0.5,4.8,1.5c3.4,2.1,3.6,0.6-4.1,23.8c-31.8,96-90.2,173.9-173.1,230.9
		c-21.6,14.8-53,31.7-80.5,43.4c-37.7,16-90.6,28.9-132.2,32.2C501.5,889.4,460.1,889.6,445.9,888.4L445.9,888.4z M450.3,863.2
		c-2.8-0.4-2-2.9,1.3-3.7c4.8-1.2,4.6,4.2,2.5-67.3c-0.5-17.6-0.9-18.5-8.6-19.2c-1.9-0.2-2.5-0.7-2.5-1.9c0-1.6,0.8-1.7,15.7-2.4
		c8.6-0.4,21.8-0.5,29.3-0.4c16.6,0.4,21.2,1.8,28,8.6c6.8,6.8,9.2,17.6,5.6,25.6c-1.9,4.2-7.8,9.4-12.2,10.7
		c-5.5,1.7-5.4,1.8,3.5,15.5c10.2,15.6,18.4,25.5,23.3,28.1c3.5,1.8,3.1,4.2-0.8,4.9c-6.2,1-22.2,0.6-24.7-0.6
		c-3.1-1.6-9.4-11.5-17.5-27.5l-6.8-13.3L483,820c-5.8-0.5-6,0-5.5,16.9c0.3,11.5,0.8,15.6,1.8,17.6c1.5,2.9,4.2,4.3,8.1,4.3
		c1.9,0,2.5,0.4,2.5,1.7c0,0.9-0.1,1.8-0.2,1.8C489.4,862.6,452.2,863.4,450.3,863.2L450.3,863.2z M487.5,813.8
		c5.3-1.2,10.4-5.4,11.9-9.9c2.6-7.7,0.6-17.4-4.7-23.7c-4.1-4.8-11.9-7.7-16.3-6.1l-2.2,0.8l0.3,18.7c0.3,17.2,0.5,18.8,2,19.9
		C480.5,815,481.8,815,487.5,813.8L487.5,813.8z M603.9,843.3c-0.8-0.8-0.4-1.6,2.2-3.7l3.2-2.7L606,829
		c-1.8-4.4-6.3-15.4-10.1-24.5c-18.3-44.5-18.5-44.8-23.8-43.7c-5.5,1.1-6.2,1-6.2-0.8c0-1.3,1.5-2.2,6.8-4.3
		c3.7-1.5,12.1-4.8,18.5-7.5c6.5-2.6,12.1-4.6,12.5-4.3c1.5,0.9,0.8,2.8-1.8,4.6c-1.6,1.2-2.5,2.6-2.5,3.8c0,1.1,3.5,10.3,7.7,20.5
		c4.3,10.2,10.4,24.9,13.6,32.7c8.6,21.1,10.5,23.3,17.3,21c1.6-0.5,3.4-0.8,3.8-0.5c1.4,0.8,1,2.8-0.7,3.8
		c-2.5,1.3-34.8,14.5-35.6,14.5C605.2,844.4,604.4,843.9,603.9,843.3L603.9,843.3z M334.3,837.9c-4.2-0.6-13.2-3.8-18.6-6.5
		c-11.9-5.9-20.9-15.9-24.3-26.8c-7.1-22.8,5.6-50.3,28.5-61.7c16.2-8.1,39.1-4.8,56.3,8.1c11.9,8.9,17.6,20.5,17.4,35.3
		c-0.3,21.2-14.8,42.3-34.1,49.4c-4.3,1.6-7.6,2.2-14.1,2.3C340.7,838.2,335.7,838.1,334.3,837.9L334.3,837.9z M347.8,831
		c9.7-5.2,17.3-18.9,21.3-38.3c4.1-19.8,1.7-34.3-6.9-42.5c-4.3-4.1-9.3-6.6-14.5-7.2c-14.1-1.7-26.4,12-32.4,36.4
		c-5.4,21.3-3.9,36.1,4.5,46.2c4.3,5.1,14.8,9.1,21.4,8.1C342.5,833.3,345.5,832.1,347.8,831L347.8,831z M709.1,793.2
		c-0.7-0.8-0.4-1.9,1.2-4.1l2.1-3l-2.6-3.6c-1.5-2-9.1-11.5-17.1-21.1c-7.9-9.6-17.8-21.5-22-26.5c-4.2-5-8.4-9.7-9.4-10.4
		c-2.5-1.8-5.4-1.6-8.6,0.4c-2.3,1.4-2.9,1.5-3.7,0.6c-1.2-1.5,1.1-3.7,22.7-21.2c9.5-7.8,20-15.6,23.4-17.4
		c15.1-8.4,31.1-9.1,44.9-2.1c2.3,1.2,6.9,4.8,10.3,8.2c10.4,10.2,15.6,23.8,14.7,37.7c-0.8,12.1-5.7,21.9-15.5,31.5
		c-5.6,5.5-34.8,29.7-37.9,31.4C710.5,794.1,709.7,794,709.1,793.2L709.1,793.2z M738.8,764.5c3.5-2.9,6.3-6.3,8.2-9.8
		c2.6-4.8,3-6.2,3.1-11.9c0.1-12-6.2-23.2-19.8-35.1c-8.5-7.5-17.1-10.7-28.2-10.7c-10.1,0-23.6,5.7-23.6,10
		c0,1.5,32.1,41.4,43,53.4c6,6.5,8.4,8.4,11.1,8.5C733.1,768.9,735.9,766.9,738.8,764.5L738.8,764.5z M205.6,759.8
		c-6.8-6.4-18-17-24.8-23.4c-6.9-6.5-12.9-12.5-13.4-13.4c-1.2-2.3,1.4-3,4.4-1.2c3.7,2.2,0.7,4.9,32.2-28.3
		c30.4-32,29.1-30.1,24.6-35.7c-4-5-2.1-6.9,2.8-2.8c5.9,4.9,25.3,23.6,26.1,25.1c1.5,2.8-0.4,3.7-3.4,1.6c-4.8-3.5-5-3.3-17.6,10.1
		c-4.6,4.9-14.7,15.5-22.4,23.6c-15,15.7-20.4,22.3-20.4,24.7c0,2.1,10.8,12.1,18.4,17c5.9,3.8,12,6,16.3,5.6
		c3.8-0.3,2.8,1.9-2.6,5.3c-2.9,1.9-6,3.4-6.7,3.4C218.6,771.5,212.4,766.2,205.6,759.8L205.6,759.8z M329.3,700
		c0.7-2.5,1.6-5.1,2.1-5.8c0.7-1.3,3.1-7.8,9.2-24.9c6.8-18.9,10.4-36.1,10.5-50.5c0.1-16.6-3.3-24.2-16.3-36.5
		c-10.3-9.7-16.8-15-32.4-26.3c-48.7-35.2-96-57.5-137.5-64.8c-10.5-1.8-29.7-2.3-39.4-0.9c-15.4,2.2-39.4,10-52.6,17
		c-9.7,5.1-28.5,16.7-32.1,19.6c-1.3,1.1-2.8,2-3.4,2c-1.6,0-16.1,8.8-25.1,15.2c-9.2,6.6-11.6,7.9-12.2,7
		c-1.2-2,15.5-41.7,21.6-51.1c1.6-2.5,4.1-6.3,5.4-8.4c9.3-14.7,31.4-39.1,44.6-49c33.7-25.5,79.7-38.8,121.1-35
		c16.8,1.5,30.6,5.5,50.7,14.5c17.1,7.7,54.7,28.2,72.2,39.4c9.4,6,46.8,26.7,61.5,34c25.2,12.5,37.1,17.4,54,22
		c13.1,3.6,21,4.4,31.7,3.1c10.6-1.3,16.7-2.9,25-6.7c20.1-9.1,35-21.6,61.9-51.9c37.4-42.3,42.8-47.6,62.9-62.7
		c23.2-17.4,41.1-28,58.3-34.3c19.3-7.1,39.3-7.4,56-0.7c6.1,2.4,19.5,9.8,50.4,27.8c14.1,8.2,46,26.4,53.4,30.5
		c2.3,1.3,7.1,4,10.6,5.9c41.8,23.6,80,43.7,83.1,43.7c0.9,0,5.4,2,10,4.5c17.1,9.3,64.8,31.9,88.9,42.1c10,4.2,32.2,13.1,35.1,14
		c1.6,0.5,1.9,1.1,1.7,3.6c-0.2,2.9-0.4,3.1-7.1,5.5c-14.4,5.3-45.4,12.3-64.9,14.6c-22.4,2.6-45.5,2.5-56.4-0.5
		c-1.9-0.5-6.5-1.2-10.2-1.6c-8.4-0.8-22.1-6.2-61.1-24.1c-11.8-5.4-13.4-6.1-23.4-10.6c-13.1-5.8-25.9-13.4-60-35.5
		c-33.4-21.6-45.1-28.8-60-36.6c-24.1-12.7-46.9-19.5-65.3-19.5c-10,0-17.3,1.6-27.2,5.9c-13.1,5.8-39.9,22.6-56,35.3
		c-3.3,2.6-9.9,7.8-14.8,11.6c-4.9,3.8-12.9,10.6-17.8,15c-4.9,4.5-12.5,11.1-17,14.8c-22.4,18.9-100.7,96.5-129.6,128.5
		c-49.2,54.5-59.2,65.3-60.4,65.3C328.3,704.5,328.5,703,329.3,700L329.3,700z M822.9,677.5c0.2-1.3,0.7-2.9,1-3.6
		c0.6-1.6-0.8-3.5-20.8-25.9c-8.7-9.7-21.8-24.7-29.2-33.2l-13.4-15.5l1-5.1c0.5-2.8,1.4-6.1,1.9-7.1c1.1-2.5,3.7-2.7,4.5-0.4
		c0.3,1,1.8,2,3.8,2.5c5,1.3,73.7,7.7,83.3,7.7c4.4,0,5-0.2,7.5-3c2.2-2.4,3-2.8,3.9-2.1c1.5,1.2,1.6,0.8-8.4,21.5
		c-8.6,17.7-10.6,20-10,11.7c0.2-3.9,0.1-4.4-1.8-5.1c-2.6-1-24.5-3.3-26-2.8c-1.5,0.5-12.8,24-12.8,26.5c0,1.2,2.7,4.6,7.4,9.5
		c11.1,11.4,13.7,12.1,17,5.3c1.8-3.7,4.1-5,4.9-2.7c0.2,0.6-2.2,6.4-5.3,12.7c-4.4,9-6.1,11.6-7.4,11.6
		C822.8,679.9,822.5,679.5,822.9,677.5L822.9,677.5z M808,628.6c2.4-4.7,4.4-9.3,4.5-10.3c0-2.6,1.3-2.3-25.6-4.9
		c-6.8-0.6-6.8,0.9,0.2,9c9.6,11.2,13.7,15.2,15.1,14.9C803,637.2,805.6,633.2,808,628.6L808,628.6z M106.2,631.8
		c-3.7-5.8-16.7-31.4-16.7-32.7c0-2,2.2-1.7,4.6,0.8c1.6,1.6,2.7,2,4.1,1.6c4.2-1.3,67.6-35.4,69.7-37.5c2.3-2.3,2.3-2.7,0.4-7.6
		c-0.9-2.2-0.9-3-0.1-3.8c0.8-0.8,1.3-0.8,2.2,0.2c1.1,1.2,20.1,36.9,29.7,55.8c2.2,4.4,3.8,8.5,3.6,9.1c-0.5,1.2-9,4.6-11.6,4.6
		c-2.2,0-2.1-1.2,0.2-4.2c1.7-2.3,1.8-2.9,0.8-7.8c-1.2-6.2-9.6-23.9-11.8-24.8c-1.8-0.7-28.8,12.7-30,15c-1,1.8,4.8,13.4,9.2,18.5
		c3.1,3.6,4.2,3.8,10.4,2.4c0.7-0.2,1.3,0.3,1.3,1c0,1.9-19.3,11.9-20.5,10.7c-0.3-0.3,0.5-1.6,1.7-2.9c3.1-3.2,2.9-6.5-0.8-13.9
		c-4.4-8.7-7-12.5-8.4-12.5c-1.6,0-23.8,12-30.3,16.3c-5.5,3.7-6.5,6-4.5,10c1.4,2.7,1.2,5.1-0.4,5.1
		C108.6,634.9,107.2,633.5,106.2,631.8L106.2,631.8z M34.8,466c-0.8-3-0.6-30.3,0.3-45.6c2.3-37,8.8-72.7,19.1-104.9
		c14.7-46,36.4-89.8,62.6-126.5c33.1-46.2,71.2-83.1,118.2-114.3C296,34.3,361.3,10.5,434,2.3c21.5-2.4,59.8-3,81.5-1.2
		c79,6.5,150.4,31.8,216.4,76.7c37.8,25.7,76.1,62.3,103.7,98.9c44.6,59.3,74.9,132.8,85.5,207.3c2.5,17.5,3.6,32.3,4,54.9
		c0.5,22.5,0.4,24.8-0.9,25.3c-1.9,0.8-5.4-0.3-7.3-2.2c-1.5-1.5-1.6-3-1.6-15.7c0-28.8-3.5-63.2-9.1-88.3c-0.7-3.3-1.7-7.7-2.1-9.8
		c-2.2-10.8-10.5-38.7-15.7-52.8c-12.1-33.1-30.4-68.8-50.1-97.4c-23.7-34.5-49.6-62.2-87.5-93.6c-10.6-8.8-31.7-23.3-49.1-33.7
		c-47.4-28.5-103.5-48.7-158-56.9c-29.5-4.4-77.5-5.7-103.8-2.8c-57.1,6.3-102.9,19.4-150.6,43c-48.6,24-85.9,51-123.7,89.6
		c-35.9,36.6-67.8,84.6-88.3,132.7C53.8,331.4,43,383.4,42.7,442.4c-0.1,9.9-0.5,18.2-0.9,19.1c-1,2.1-5,6.4-5.8,6.4
		C35.6,467.9,35.1,467,34.8,466L34.8,466z M153.8,393.6c-0.3-0.3-0.3-1.8-0.1-3.3c0.4-2.3,0.1-3.1-1.5-4.1
		c-3.3-2.2-73.4-21.1-76.9-20.8c-2.8,0.2-3.3,0.7-5.1,4.3c-1.1,2.3-2.5,4-3.3,4c-1.5,0-1.3-2.4,1.5-12.3
		c10.4-37.8,10.8-39,13.2-43.9c4.1-8,9.8-12.8,16.8-14.1c11.1-2.1,18.9,5.3,20.6,19.2c0.3,2.5,0.9,4.5,1.5,4.5c0.5,0,3.4-2.7,6.3-6
		c7-7.8,12.1-10.4,19.8-10.5c16.6-0.1,26.5,15.5,22.8,35.6c-1.1,5.8-9.1,36.1-11.5,43.7C156.5,393.8,155.1,395,153.8,393.6
		L153.8,393.6z M159.8,360.3c3.5-3.5,3.3-12.8-0.4-18.7c-5.9-9.3-19.9-12.8-30.3-7.5c-4.6,2.4-9.6,7.8-11.4,12.3
		c-1.3,3.4-1.3,4-0.2,5.1c0.7,0.7,7,2.8,13.9,4.7C155.9,362.6,157.3,362.9,159.8,360.3L159.8,360.3z M111.9,348.1
		c0.7-1.1,2.2-4.6,3.3-7.9c1.8-5.2,1.9-6.3,0.9-8.5c-2.3-5.5-10.1-9.1-18.5-8.6c-8.7,0.6-16.2,7.1-17.3,15.1c-0.4,3-0.2,3.5,1.8,4.3
		c2.6,1.2,24.9,7.3,27.1,7.5C110,350,111.2,349.2,111.9,348.1L111.9,348.1z M886,391.4c-0.6-1.5-1.7-3.2-2.4-3.8
		c-0.7-0.5-6.2-2.5-12.2-4.4s-17.5-5.3-25.4-7.8l-14.4-4.4l-11.9,2.3c-14.8,2.9-19.1,4.1-22.1,6.5c-2.2,1.7-2.3,2.2-1.8,5.9
		c0.6,4.2-0.5,6.1-2.2,4.3c-1.5-1.5-9-39.8-8-40.8c1.5-1.5,2.2-1,3.4,2c0.7,1.6,1.9,3.1,2.9,3.4c2.8,0.9,32.4-5.4,35.4-7.5
		c4.7-3.3,33.1-26.1,36.4-29.3c3.9-3.7,5.7-6.8,5.7-10.2c0-2.9,1.1-4,2.4-2.4c1.1,1.4,8.8,37.5,8.5,39.8c-0.5,3.2-2.4,2.7-3.8-1
		c-1-2.5-1.8-3.5-3.1-3.5c-2.2,0-32.8,24.1-32.8,25.8c0,1.8,1.5,2.4,17.5,7.1c23.4,6.8,25.3,6.7,24.3-1.6c-0.4-3.6-0.3-4.2,0.9-4.2
		c0.8,0,1.8,0.8,2.2,1.9c0.9,2.2,4.2,19.7,4.2,22.4C889.7,395.1,887.4,394.6,886,391.4L886,391.4z M177.8,311.5
		c-0.8-0.9-0.6-1.9,0.5-4.2c1.4-3,1.4-3.1-0.6-5.8c-7.3-9.9-26.9-38.1-38.4-55.2c-12.5-18.6-13.5-20.4-13.1-23.1
		c0.6-3.8,4.5-12.2,5.5-12.2c0.5,0,1.7,1.2,2.7,2.6s2.8,3,4,3.4c5.5,2.1,77.9,16.9,82.6,16.9c2.4,0,3.9-0.6,5.5-2.1
		c2.4-2.4,4.6-2.8,4.6-0.8c0,1.3-8.5,15.1-17.1,28.1c-4.3,6.4-7.3,8.2-6.2,3.8c1.6-6.5,1.6-6.6-0.9-7.8c-1.3-0.6-7.4-2.2-13.4-3.5
		l-11-2.4l-1.8,1.7c-2.5,2.3-14.8,22.2-14.8,23.8c0,1.5,7.8,12,12.6,17c4.1,4.3,6.5,4.2,10.5-0.4c2.5-2.8,3.4-3.4,4.2-2.6
		c1.1,1.1,0,3.2-9.2,17.4C179.7,312.6,179.1,313.1,177.8,311.5L177.8,311.5z M167.9,260.8c5.9-9.1,7-11.4,5.8-12.6
		c-1.1-1.1-22.3-5.8-26.2-5.8c-1.5,0-2.9,0.3-3.2,0.7c-0.5,0.8,4.9,9.4,12,19.4c2.4,3.4,4.4,5.3,5.4,5.3
		C162.8,267.8,164.8,265.6,167.9,260.8L167.9,260.8z M756.3,286.2c-13.4-24.8-12.8-23.4-12.2-24.9c0.8-1.9,1.9-1.1,4.9,3.5
		c1.8,2.7,3.5,4.3,4.7,4.5c1.7,0.2,8.8-3.3,36.2-18.1c18.4-9.9,35.3-19.5,36.1-20.4c1.3-1.6,0.5-3.7-4.4-10.9
		c-5-7.5-8.9-10.7-14.7-12c-2.4-0.5-4.3-1.3-4.3-1.8c0-1.1,5.8-2.9,11.4-3.5l4.8-0.5l5.4,10.1c3,5.5,6.8,12.5,8.4,15.6
		c13.2,24.3,23.8,44.7,23.9,45.9c0,0.8-2.3,3.8-5.2,6.7c-3.8,4-5.4,5.1-6.1,4.4c-0.7-0.8-0.6-1.7,0.5-4c2-4.2,1.8-10.4-0.6-16.8
		c-2.3-6.1-6-12.4-7.3-12.4c-0.5,0-8,3.9-16.8,8.6c-8.7,4.7-21.6,11.6-28.6,15.4c-28.5,15.1-29.1,15.8-24.6,24.2
		c2.5,4.7,2.7,6.1,0.6,6.1C767.4,306,764.1,300.7,756.3,286.2L756.3,286.2z M717.1,227.7c-0.4-1.8-0.9-17.8-1.8-57.5
		c-0.5-20.1-1.7-41.4-2.3-42.1c-0.2-0.2-1.1-0.2-2,0.1c-1.5,0.5-37.4,40.1-40.4,44.5c-2.2,3.2-1.8,6.1,1.1,9.7
		c2.4,2.9,2.7,4.8,0.8,4.8c-1.1,0-17.5-14.2-18.1-15.6c-0.9-2.3,1.2-3,4.3-1.4c2.2,1.2,3.4,1.4,4.8,0.7c1-0.5,6-5.7,11.1-11.5
		c5.2-5.8,14.2-16.1,20.2-22.8c12.6-14.1,15.5-17.8,17.2-22.5c1.6-4.7,1.5-6.5-0.8-11c-2-4-2.1-5.8-0.2-5.8
		c1.2,0,11.3,8.2,18.8,15.4c3.6,3.4,4.5,4.8,4.8,7.8c0.2,2,0.9,19,1.5,37.9c0.5,18.9,1.3,35.2,1.7,36.2c0.4,1.1,1.3,1.9,1.9,1.9
		c0.7,0,4.6-3.7,8.7-8.2c4.1-4.5,10.1-11.1,13.4-14.6c6.8-7.4,10.7-13.2,10.7-15.8c0-1-1.1-2.9-2.5-4.2c-1.4-1.4-2.5-2.9-2.5-3.5
		c0-1.5,1.5-2.2,2.9-1.4c2.8,1.6,17.5,15,17.5,16c0,1.9-2.4,2-4.6,0.3c-1.2-0.9-2.8-1.6-3.6-1.4c-0.8,0.2-14.4,14.7-30.1,32.4
		c-15.7,17.7-29.1,32.4-29.7,32.8C718.1,230,717.5,229.8,717.1,227.7L717.1,227.7z M246.7,218c-1.5-0.6-1.3-2.3,0.6-4.1
		c0.9-0.8,1.7-2.2,1.7-3.1c0-0.8-5-6.9-11.2-13.4c-9.4-10-11.9-12.1-15.5-13.5c-15.6-5.7-45.8-15.4-48.2-15.4
		c-1.7,0-3.9,0.7-5.2,1.8c-2.2,1.7-2.4,1.7-3.7,0.4c-1.3-1.4-0.7-2.2,10.5-12.9c6.5-6.3,13.5-12.8,15.5-14.5
		c3.2-2.7,3.8-2.9,4.9-1.8c1.1,1.1,1.1,1.5-0.5,3.5c-2.6,3.3-2.2,4.8,1.9,6.5c7.7,3.3,34.6,12.1,35.4,11.5c1.5-0.9,1-3.8-2.1-14.9
		c-5-17.6-7.2-23.7-8.9-24.6c-2.1-1.1-1.8-1.2-5.5,1.7c-3.6,2.9-4.5,3.1-5.2,1.2c-0.6-1.5,3.6-6.1,12.7-14.1c4.7-4.1,6-4.8,7-4
		c1.1,0.9,1.1,1.2-0.1,2.8c-3,4.1-3,5.3-0.5,15.1c1.4,5.2,4.2,16.4,6.4,24.8c2.2,8.4,4.5,16.1,5.2,17.2c2.9,4.4,22,22.9,24.3,23.5
		c1.8,0.5,3.2,0,5.8-1.7c3.5-2.3,5.5-2.1,4.6,0.5c-0.5,1.1-24.4,24.4-27.6,26.7C248.3,218,247.3,218.2,246.7,218L246.7,218z
		 M602,149.9c-14.9-4-27.8-12.9-32.7-22.6c-2.1-4.2-2.5-5.9-2.5-11.3c0-5.8,0.5-7.5,4.8-17.8C586.2,62.9,591,50.7,591,49.3
		c0-2.3-1.7-4.3-5.1-6c-3.1-1.5-3.9-3.8-1.6-4.3c2-0.4,35.6,13.1,37.5,15.1c0.5,0.5,0.4,1.3-0.2,2.1c-0.8,0.9-1.7,1-3.7,0.5
		c-4.4-1.2-4.5-1.1-14.2,22.5c-2.7,6.5-7.1,17.1-9.7,23.6c-5.8,14.1-7,19.4-5.5,25.4c1.4,5.9,3.8,9.5,8.1,12.5
		c8.8,6,21.4,7.7,29.6,3.8c8.5-4,11.1-8.2,24.7-41.2c10.6-25.8,11-28.2,4.5-31.5c-3.5-1.8-3.9-3.5-1.1-4c0.9-0.1,6,1.6,11.4,3.8
		c7.8,3.2,9.8,4.4,9.8,5.8c0,1.7-0.9,1.9-4.8,0.8c-2.7-0.7-3.9,0.8-7.5,9.5c-19,46.1-21.1,50.3-27.7,56.1
		C627.7,150.8,614.2,153.2,602,149.9L602,149.9z M352.5,141.2c-14.5-4.3-24.9-15.8-29.7-33.2c-2.8-9.9-2.2-22.1,1.5-30.7
		c3.7-8.6,7.6-14.2,14.8-21c7-6.6,16.2-12.2,25.2-15.3c7.2-2.5,23.2-4.5,25.4-3.2c1.8,1.1,4.1,11.1,2.9,12.3
		c-0.5,0.5-1.7,0.1-3.4-1.3c-3.7-3.2-6.4-3.9-13.8-3.9c-8.8,0-14.6,2.2-20.6,7.7c-5.2,4.8-10,13.2-11.6,20.4
		c-1.6,7.3-0.7,19.4,2,27.4c11,32.1,37.8,42.5,59.4,23.3c5.3-4.7,8.2-9.5,9-14.7c0.2-1.8,0.8-3.4,1.3-3.4c1.1,0,2.8,5.4,3.5,11
		l0.5,4.5l-6.3,4.5c-7.4,5.2-18.7,10.7-28.7,14C375.3,142.1,359.1,143.1,352.5,141.2L352.5,141.2z M473,124.1
		c-17.8-3.6-30.4-14.7-34.9-30.8c-2-7.1-2.1-21.1-0.2-28.2c4.1-15.9,14-28.6,27.1-34.7c19.9-9.4,48.8-4.9,61.9,9.5
		c8,8.9,11.7,19.2,11.6,33c-0.1,25.8-16,46.3-39.8,51.3C491.3,125.6,480.7,125.6,473,124.1L473,124.1z M498.9,119.7
		c4.7-1.6,9.7-6.2,12.3-11.4c2.8-5.5,5.1-15.7,5.1-22.8c0-8-2-22.7-3.8-28.9c-6-19.9-20.7-30.7-35.2-25.8
		c-12.9,4.3-19.8,20.2-18.3,42.2c1,15.3,4.6,27.8,10.7,36.6C476.2,119.2,488.2,123.3,498.9,119.7L498.9,119.7z"/>
</g>
</svg>
